<svg xmlns="http://www.w3.org/2000/svg" viewBox="0 0 512 512" role="img" aria-labelledby="title desc">
  <title id="title">Renjie Poker Icon</title>
  <desc id="desc">A stylized playing card with suit symbols.</desc>
  <defs>
    <linearGradient id="bg" x1="0" x2="1" y1="0" y2="1">
      <stop offset="0%" stop-color="#0f5132" />
      <stop offset="100%" stop-color="#09301f" />
    </linearGradient>
    <linearGradient id="card" x1="0" x2="1" y1="0" y2="1">
      <stop offset="0%" stop-color="#ffffff" />
      <stop offset="100%" stop-color="#f2f5f7" />
    </linearGradient>
  </defs>

  <rect width="512" height="512" rx="112" fill="url(#bg)" />

  <g transform="translate(72 56)">
    <rect x="24" y="30" width="300" height="400" rx="30" fill="#042818" opacity="0.25" />
    <rect x="0" y="0" width="300" height="400" rx="30" fill="url(#card)" />

    <text x="34" y="74" font-family="Georgia, 'Times New Roman', serif" font-size="58" font-weight="700" fill="#0f5132">A</text>
    <text x="228" y="366" font-family="Georgia, 'Times New Roman', serif" font-size="58" font-weight="700" fill="#0f5132" transform="rotate(180 258 336)">A</text>

    <path d="M150 150c-15-32-62-42-62-5c0 18 16 35 62 75c46-40 62-57 62-75c0-37-47-27-62 5z" fill="#c23030" />
    <path d="M150 248c-15-32-62-42-62-5c0 18 16 35 62 75c46-40 62-57 62-75c0-37-47-27-62 5z" fill="#c23030" />
  </g>
</svg>
